<svg xmlns="http://www.w3.org/2000/svg" viewBox="0 0 24 24" shape-rendering="crispEdges">
  <title>Bilibili</title>
  <rect x="6" y="1" width="2" height="2" fill="#172018" />
  <rect x="16" y="1" width="2" height="2" fill="#172018" />
  <rect x="8" y="3" width="2" height="2" fill="#172018" />
  <rect x="14" y="3" width="2" height="2" fill="#172018" />
  <path fill="#172018" d="M4 5h16v2h2v12h-2v2H4v-2H2V7h2V5Z" />
  <path fill="#fb7299" d="M5 7h14v2h1v8h-2v2H6v-2H4V9h1V7Z" />
  <rect x="6" y="9" width="12" height="7" fill="#fff7f5" />
  <rect x="8" y="11" width="2" height="3" fill="#4b3438" />
  <rect x="14" y="11" width="2" height="3" fill="#4b3438" />
  <rect x="10" y="15" width="4" height="1" fill="#fb7299" />
</svg>
