<svg xmlns="http://www.w3.org/2000/svg" viewBox="0 0 24 24" shape-rendering="crispEdges">
  <title>Planet Minecraft</title>
  <path fill="#172018" d="M8 2h8v2h4v4h2v8h-2v4h-4v2H8v-2H4v-4H2V8h2V4h4V2Z" />
  <path fill="#56b9d4" d="M8 4h8v2h3v3h1v6h-2v3h-3v2H9v-2H6v-3H4V9h2V6h2V4Z" />
  <rect x="7" y="5" width="5" height="3" fill="#76b84a" />
  <rect x="5" y="8" width="7" height="4" fill="#76b84a" />
  <rect x="7" y="12" width="4" height="3" fill="#5a9139" />
  <rect x="14" y="9" width="5" height="3" fill="#76b84a" />
  <rect x="13" y="12" width="4" height="5" fill="#5a9139" />
  <rect x="9" y="17" width="6" height="3" fill="#8a603a" />
  <rect x="4" y="14" width="3" height="2" fill="#9dd5e4" />
  <rect x="17" y="6" width="2" height="2" fill="#9dd5e4" />
</svg>
